<svg xmlns="http://www.w3.org/2000/svg" width="240" height="40" viewBox="0 0 240 40" fill="none">
  <!-- Community — single path wordmark -->
  <path d="
    M 12,28 C 8,26 5,23 5,20 C 5,14 9,10 15,10 C 18,10 21,11 23,13 L 20,16
    C 18.5,15 17,14 15,14 C 11,14 9,17 9,20 C 9,23 11,26 15,26
    C 17,26 18.5,25 20,24 L 23,27 C 21,29 18,30 15,30 C 13,30 12,29 12,28 Z
    M 29,20 C 29,16 32,12 36,12 C 40,12 43,16 43,20 C 43,24 40,28 36,28
    C 32,28 29,24 29,20 Z M 33,20 C 33,22 34,24 36,24 C 38,24 39,22 39,20
    C 39,18 38,16 36,16 C 34,16 33,18 33,20 Z
    M 48,28 V 14 H 52 V 16 C 53,15 54,13 56,13 C 58,13 59,14 60,15.5
    C 61,14 62,13 64,13 C 67,13 69,15 69,18.5 V 28 H 65 V 19 C 65,17 64,16 62.5,16
    C 61,16 60,17 60,19 V 28 H 56 V 19 C 56,17 55,16 53.5,16
    C 52,16 52,17 52,19 V 28 Z
    M 74,28 V 14 H 78 V 16 C 79,15 80,13 82,13 C 84,13 85,14 86,15.5
    C 87,14 88,13 90,13 C 93,13 95,15 95,18.5 V 28 H 91 V 19 C 91,17 90,16 88.5,16
    C 87,16 86,17 86,19 V 28 H 82 V 19 C 82,17 81,16 79.5,16
    C 78,16 78,17 78,19 V 28 Z
    M 100,14 V 24 C 100,27 102,28 104,28 C 106,28 108,27 108,24 V 14 H 112 V 24
    C 112,28.5 109,32 104,32 C 99,32 96,28.5 96,24 V 14 Z
    M 116,14 V 28 H 120 V 20 C 120,17 121,16 123,16 C 125,16 126,17 126,20 V 28
    H 130 V 18.5 C 130,15 128,13 125,13 C 122,13 120,15 120,17 V 14 Z
    M 134,10 C 134,8.5 135.2,7.5 136.5,7.5 C 137.8,7.5 139,8.5 139,10
    C 139,11.5 137.8,12.5 136.5,12.5 C 135.2,12.5 134,11.5 134,10 Z
    M 134,14 H 139 V 28 H 134 Z
    M 142,9 H 146 V 14 H 151 V 17.5 H 146 V 24 C 146,26 147,27 148.5,27
    C 149.5,27 150,26.5 151,26 L 152,29 C 151,30 150,30.5 149,30.5
    C 146,30.5 142,28.5 142,24.5 V 17.5 H 139 V 14 H 142 Z
    M 156,14 L 162,24 L 168,14 H 172 L 164,28 V 32 H 160 V 28 L 152,14 Z
  " fill="#2D2420"/>
  <!-- Sense — horizontally aligned to the right of Community -->
  <g transform="translate(44, -9)">
    <path d="
      M 129,37 V 35 C 130.5,36 132,37 134,37 C 136,37 137,36 137,34.5
      C 137,33 135.5,32.5 133,32 C 130,31.5 128,30.5 128,27.5 C 128,25 130,23.5 133,23.5
      C 135,23.5 136.5,24 138,25 V 28 C 136.5,27 135,26 133,26
      C 131,26 130,27 130,28 C 130,29 131,29.5 133,30 C 136,30.5 138,31.5 138,34.5
      C 138,37 136,39 133,39 C 131,39 129.5,38.5 129,37 Z
      M 142,31 C 142,27.5 144,24 148,24 C 152,24 154,27.5 154,31
      C 154,31.5 154,32 153.5,32 H 146 C 146.5,34 148,35 150,35
      C 151.5,35 152.5,34.5 153.5,34 L 154.5,37 C 153,38 151.5,38.5 150,38.5
      C 145,38.5 142,35.5 142,31 Z M 146,30 H 150 C 149.5,28 149,27 148,27
      C 147,27 146,28 146,30 Z
      M 158,24 V 38 H 162 V 30 C 162,27 163.5,26 165,26 C 167,26 168,27 168,30 V 38
      H 172 V 28.5 C 172,25 170,22.5 167,22.5 C 164.5,22.5 162.5,24 162,26 V 24 Z
      M 176,37 C 174.5,38 173,38.5 171,38.5 C 167.5,38.5 165,37 165,34.5
      C 165,32 167,31 169.5,30.5 C 172,30 174,29.5 174,28 C 174,26.5 172.5,26 171,26
      C 169,26 167,27 166,28 L 165,25 C 166.5,24 168.5,23 171,23
      C 174.5,23 177,24.5 177,27.5 C 177,30 175,31 172.5,31.5 C 170,32 168,32.5 168,34
      C 168,35.5 169.5,36 171,36 C 172.5,36 174,35.5 175,34.5 Z
      M 181,31 C 181,27.5 183,24 187,24 C 191,24 193,27.5 193,31
      C 193,31.5 193,32 192.5,32 H 185 C 185.5,34 187,35 189,35
      C 190.5,35 191.5,34.5 192.5,34 L 193.5,37 C 192,38 190.5,38.5 189,38.5
      C 184,38.5 181,35.5 181,31 Z M 185,30 H 189 C 188.5,28 188,27 187,27
      C 186,27 185,28 185,30 Z
    " fill="#2D2420"/>
  </g>
</svg>
